<svg id="Layer_1" data-name="Layer 1" xmlns="http://www.w3.org/2000/svg" viewBox="0 0 200 200"><defs><style>.cls-1{fill:#231f20;}</style></defs><title>Wondicon - UI (Free)</title><path class="cls-1" d="M139.45,175.69H60.55A15.57,15.57,0,0,1,45,160.14V105H29.31a5,5,0,0,1-3.53-8.54L89,33.24a15.57,15.57,0,0,1,22,0l63.22,63.22a5,5,0,0,1-3.53,8.54H155v55.14A15.57,15.57,0,0,1,139.45,175.69ZM41.38,95H50a5,5,0,0,1,5,5v60.14a5.56,5.56,0,0,0,5.55,5.55h78.9a5.56,5.56,0,0,0,5.55-5.55V100a5,5,0,0,1,5-5h8.62L103.93,40.31a5.56,5.56,0,0,0-7.86,0Z"/><path class="cls-1" d="M125,175.69a5,5,0,0,1-5-5V135.55a5.56,5.56,0,0,0-5.55-5.55H85.55A5.56,5.56,0,0,0,80,135.55v35.14a5,5,0,0,1-10,0V135.55A15.57,15.57,0,0,1,85.55,120h28.9A15.57,15.57,0,0,1,130,135.55v35.14A5,5,0,0,1,125,175.69Z"/><path class="cls-1" d="M100,105a17.5,17.5,0,1,1,17.5-17.5A17.52,17.52,0,0,1,100,105Zm0-25a7.5,7.5,0,1,0,7.5,7.5A7.5,7.5,0,0,0,100,80Z"/><path class="cls-1" d="M100,175.69a5,5,0,0,1-5-5V125a5,5,0,0,1,10,0v45.69A5,5,0,0,1,100,175.69Z"/><path class="cls-1" d="M150,83.66a5,5,0,0,1-5-5V41.58a2.72,2.72,0,0,0-2.72-2.72H130V54.31a5,5,0,0,1-10,0V33.86a5,5,0,0,1,5-5h17.28A12.73,12.73,0,0,1,155,41.58V78.66A5,5,0,0,1,150,83.66Z"/></svg>