<?xml version="1.0" ?><svg viewBox="0 0 64 64" xmlns="http://www.w3.org/2000/svg"><title/><g id="Management"><path d="M56,14.9528V3a1,1,0,0,0-1-1H45a1,1,0,0,0-1,1V5.8077A48.8736,48.8736,0,0,0,32.189,2.0182a.9846.9846,0,0,0-.3779,0C5.4268,7.0919,2.0435,26.6471,2.0122,26.8444A1,1,0,0,0,3,28H8V55a1,1,0,0,0,1,1H55a1,1,0,0,0,1-1V28h5a1,1,0,0,0,.9873-1.1577A27.0787,27.0787,0,0,0,56,14.9528Z" style="fill:#ffcb8e"/><rect height="8" rx="1" style="fill:#e97171" width="54" x="5" y="54.0001"/><path d="M47,30H44.36a13.9425,13.9425,0,0,0-.79-1.91l1.86-1.87a.9784.9784,0,0,0,0-1.41l-4.24-4.24a.9784.9784,0,0,0-1.41,0l-1.87,1.86A13.9425,13.9425,0,0,0,36,21.64V19a1.0029,1.0029,0,0,0-1-1H29a1.0029,1.0029,0,0,0-1,1v2.64a13.9425,13.9425,0,0,0-1.91.79l-1.87-1.86a.9784.9784,0,0,0-1.41,0l-4.24,4.24a.9784.9784,0,0,0,0,1.41l1.86,1.87A13.9425,13.9425,0,0,0,19.64,30H17a1.0029,1.0029,0,0,0-1,1v6a1.0029,1.0029,0,0,0,1,1h2.64a13.9425,13.9425,0,0,0,.79,1.91l-1.86,1.87a.9784.9784,0,0,0,0,1.41l4.24,4.24a.9784.9784,0,0,0,1.41,0l1.87-1.86a13.9425,13.9425,0,0,0,1.91.79V49a1.0029,1.0029,0,0,0,1,1h6a1.0029,1.0029,0,0,0,1-1V46.36a13.9425,13.9425,0,0,0,1.91-.79l1.87,1.86a.9784.9784,0,0,0,1.41,0l4.24-4.24a.9784.9784,0,0,0,0-1.41l-1.86-1.87A13.9425,13.9425,0,0,0,44.36,38H47a1.0029,1.0029,0,0,0,1-1V31A1.0029,1.0029,0,0,0,47,30ZM32,42a8,8,0,1,1,8-8A8.0106,8.0106,0,0,1,32,42Z" style="fill:#f5efef"/><path d="M56,14.9528V3a1,1,0,0,0-1-1H45a1,1,0,0,0-1,1V5.8077A48.8736,48.8736,0,0,0,32.189,2.0182a.9783.9783,0,0,0-.189,0V62H58a1,1,0,0,0,1-1V55a1,1,0,0,0-1-1H56V28h5a1,1,0,0,0,.9873-1.1577A27.0787,27.0787,0,0,0,56,14.9528Z" style="opacity:0.1"/><path d="M56,14.9531V3a1,1,0,0,0-1-1H45a1,1,0,0,0-1,1V5.8076a48.8479,48.8479,0,0,0-11.8115-3.79,1.0168,1.0168,0,0,0-.377,0C5.4268,7.0918,2.043,26.6475,2.0127,26.8438A1,1,0,0,0,3,28H8V54H6a1,1,0,0,0-1,1v6a1,1,0,0,0,1,1H58a1,1,0,0,0,1-1V55a1,1,0,0,0-1-1H56V28h5a.9993.9993,0,0,0,.9873-1.1572A27.07,27.07,0,0,0,56,14.9531ZM57,60H7V56H57ZM55,26a1,1,0,0,0-1,1V54H10V27a1,1,0,0,0-1-1H4.248C5.3516,21.8848,10.5811,8.2109,32,4.0186A45.5982,45.5982,0,0,1,44.5332,8.3125,1,1,0,0,0,46,7.4277V4h8V15.3174a1.0039,1.0039,0,0,0,.2383.6484A27.26,27.26,0,0,1,59.7344,26Z" style="fill:#2d4059"/><path d="M47,30H44.3574a13.0638,13.0638,0,0,0-.79-1.91l1.8672-1.8681a1,1,0,0,0,0-1.4141l-4.2422-4.2422a1,1,0,0,0-1.4141,0L37.91,22.4326a13.0638,13.0638,0,0,0-1.91-.79V19a1,1,0,0,0-1-1H29a1,1,0,0,0-1,1v2.6426a13.0638,13.0638,0,0,0-1.91.79l-1.8681-1.8672a1,1,0,0,0-1.4141,0l-4.2422,4.2422a1,1,0,0,0,0,1.4141L20.4326,28.09a13.0638,13.0638,0,0,0-.79,1.91H17a1,1,0,0,0-1,1v6a1,1,0,0,0,1,1h2.6426a13.0638,13.0638,0,0,0,.79,1.91l-1.8672,1.8681a1,1,0,0,0,0,1.4141l4.2422,4.2422a1,1,0,0,0,1.4141,0L26.09,45.5674a13.0638,13.0638,0,0,0,1.91.79V49a1,1,0,0,0,1,1h6a1,1,0,0,0,1-1V46.3574a13.0638,13.0638,0,0,0,1.91-.79l1.8681,1.8672a1,1,0,0,0,1.4141,0l4.2422-4.2422a1,1,0,0,0,0-1.4141L43.5674,39.91a13.0638,13.0638,0,0,0,.79-1.91H47a1,1,0,0,0,1-1V31A1,1,0,0,0,47,30Zm-1,6H43.6064a1.0009,1.0009,0,0,0-.9687.75,10.8911,10.8911,0,0,1-1.17,2.8271,1,1,0,0,0,.1543,1.2159l1.6914,1.6924-2.8281,2.8281L38.793,43.6221a1.0047,1.0047,0,0,0-1.2159-.1543,10.8911,10.8911,0,0,1-2.8271,1.17,1.0009,1.0009,0,0,0-.75.9687V48H30V45.6064a1.0009,1.0009,0,0,0-.75-.9687,10.8911,10.8911,0,0,1-2.8271-1.17,1.0033,1.0033,0,0,0-1.2159.1543l-1.6924,1.6914-2.8281-2.8281,1.6914-1.6924a1,1,0,0,0,.1543-1.2159,10.8911,10.8911,0,0,1-1.17-2.8271,1.0009,1.0009,0,0,0-.9687-.75H18V32h2.3936a1.0009,1.0009,0,0,0,.9687-.75,10.8911,10.8911,0,0,1,1.17-2.8271,1,1,0,0,0-.1543-1.2159l-1.6914-1.6924,2.8281-2.8281,1.6924,1.6914a1.0036,1.0036,0,0,0,1.2159.1543,10.8911,10.8911,0,0,1,2.8271-1.17,1.0009,1.0009,0,0,0,.75-.9687V20h4v2.3936a1.0009,1.0009,0,0,0,.75.9687,10.8911,10.8911,0,0,1,2.8271,1.17,1.005,1.005,0,0,0,1.2159-.1543l1.6924-1.6914,2.8281,2.8281L41.6221,27.207a1,1,0,0,0-.1543,1.2159,10.8911,10.8911,0,0,1,1.17,2.8271,1.0009,1.0009,0,0,0,.9687.75H46Z" style="fill:#2d4059"/><path d="M32,26a8,8,0,1,0,8,8A8.0092,8.0092,0,0,0,32,26Zm0,14a6,6,0,1,1,6-6A6.0066,6.0066,0,0,1,32,40Z" style="fill:#2d4059"/></g></svg>